<svg xmlns="http://www.w3.org/2000/svg" viewBox="0 0 513 513" width="513" height="513">
	<style>
		tspan { white-space:pre }
		.shp0 { fill: #ffffff } 
	</style>
	<g id="Layer">
		<g id="Layer">
			<path id="Layer" class="shp0" d="M284.29 256L506.14 34.14C513.95 26.33 513.95 13.67 506.14 5.86C498.33 -1.95 485.67 -1.95 477.86 5.86L256 227.72L34.14 5.86C26.33 -1.95 13.67 -1.95 5.86 5.86C-1.95 13.67 -1.95 26.33 5.86 34.14L227.72 256L5.86 477.86C-1.95 485.67 -1.95 498.33 5.86 506.14C9.76 510.05 14.88 512 20 512C25.12 512 30.24 510.05 34.14 506.14L256 284.29L477.86 506.14C481.76 510.05 486.88 512 492 512C497.12 512 502.24 510.05 506.14 506.14C513.95 498.33 513.95 485.67 506.14 477.86L284.29 256Z" />
		</g>
	</g>
</svg>